<svg width="48" height="84" viewBox="0 0 48 84" fill="none" xmlns="http://www.w3.org/2000/svg">
<path d="M24 48C37.2548 48 48 37.2548 48 24C48 10.7452 37.2548 0 24 0C10.7452 0 0 10.7452 0 24C0 37.2548 10.7452 48 24 48Z" fill="white" fill-opacity="0.8"/>
<path d="M44 54H4C1.79086 54 0 55.7909 0 58V80C0 82.2091 1.79086 84 4 84H44C46.2091 84 48 82.2091 48 80V58C48 55.7909 46.2091 54 44 54Z" fill="white" fill-opacity="0.9"/>
<path fill-rule="evenodd" clip-rule="evenodd" d="M5 64C5 64.5523 5.44772 65 6 65H42C42.5523 65 43 64.5523 43 64C43 63.4477 42.5523 63 42 63H6C5.44772 63 5 63.4477 5 64ZM5 69C5 69.5523 5.44772 70 6 70H29C29.5523 70 30 69.5523 30 69C30 68.4477 29.5523 68 29 68H6C5.44772 68 5 68.4477 5 69ZM5 74C5 74.5523 5.44772 75 6 75H36C36.5523 75 37 74.5523 37 74C37 73.4477 36.5523 73 36 73H6C5.44772 73 5 73.4477 5 74Z" fill="#1A2B6B"/>
</svg>
