<svg width="64" height="64" viewBox="0 0 64 64" fill="none" xmlns="http://www.w3.org/2000/svg">
<path d="M12 24C18.6274 24 24 18.6274 24 12C24 5.37258 18.6274 0 12 0C5.37258 0 0 5.37258 0 12C0 18.6274 5.37258 24 12 24Z" fill="white" fill-opacity="0.8"/>
<path d="M52 24C58.6274 24 64 18.6274 64 12C64 5.37258 58.6274 0 52 0C45.3726 0 40 5.37258 40 12C40 18.6274 45.3726 24 52 24Z" fill="white" fill-opacity="0.8"/>
<path d="M12 64C18.6274 64 24 58.6274 24 52C24 45.3726 18.6274 40 12 40C5.37258 40 0 45.3726 0 52C0 58.6274 5.37258 64 12 64Z" fill="white" fill-opacity="0.8"/>
<path d="M52 64C58.6274 64 64 58.6274 64 52C64 45.3726 58.6274 40 52 40C45.3726 40 40 45.3726 40 52C40 58.6274 45.3726 64 52 64Z" fill="white" fill-opacity="0.8"/>
<path d="M12.7072 11.293L52.7072 51.293L51.293 52.7072L11.293 12.7072L12.7072 11.293Z" fill="white"/>
<path d="M11.293 51.293L51.293 11.293L52.7072 12.7072L12.7072 52.7072L11.293 51.293Z" fill="white"/>
<path d="M13 12V52H11V12H13Z" fill="white"/>
<path d="M53 12V52H51V12H53Z" fill="white"/>
<path d="M12 11H52V13H12V11Z" fill="white"/>
<path d="M12 51H52V53H12V51Z" fill="white"/>
</svg>
